<?xml version="1.0" encoding="iso-8859-1"?>
<!-- Generator: Adobe Illustrator 18.0.0, SVG Export Plug-In . SVG Version: 6.00 Build 0)  -->
<!DOCTYPE svg PUBLIC "-//W3C//DTD SVG 1.1//EN" "http://www.w3.org/Graphics/SVG/1.1/DTD/svg11.dtd">
<svg version="1.1" id="Layer_1" xmlns="http://www.w3.org/2000/svg" xmlns:xlink="http://www.w3.org/1999/xlink" x="0px" y="0px"
	 viewBox="0 0 128 128" style="enable-background:new 0 0 128 128;" xml:space="preserve">
<path style="fill:#2AA6D3;" d="M117,128H11c-6.075,0-11-4.925-11-11V11C0,4.925,4.925,0,11,0h106c6.075,0,11,4.925,11,11v106
	C128,123.075,123.075,128,117,128z"/>
<g>
	<path style="fill:#FFFFFF;" d="M64.2,47.389h36.55c-0.016-0.823-0.092-1.624-0.212-2.406H64.2v-2.157c0,0-0.029-0.093-0.091-0.252
		h35.864c-0.26-0.835-0.593-1.638-0.978-2.406h-33.92c-0.537,0.927-0.879,1.676-1.071,2.141
		c-0.961-2.322-5.613-11.699-18.212-11.699c-14.381,0-24.158,13.493-14.957,29.108C40.028,75.334,64.2,97.389,64.2,97.389v-1.874
		h1.611c0.697-0.655,1.547-1.462,2.526-2.407H64.2v-2.406h6.608c0.768-0.753,1.576-1.56,2.422-2.407H64.2v-2.406h11.405
		c0.756-0.777,1.536-1.582,2.32-2.405H64.2v-2.408h15.997c0.74-0.788,1.48-1.59,2.22-2.405H64.2v-2.407h20.371
		c0.708-0.799,1.407-1.599,2.098-2.407H64.2v-2.405h24.489c0.663-0.803,1.314-1.605,1.946-2.407H64.2V66.64h28.284
		c0.609-0.809,1.198-1.614,1.757-2.407H64.2v-2.406h31.663c0.464-0.712,0.904-1.417,1.31-2.108c0.059-0.101,0.11-0.196,0.167-0.297
		H64.2v-2.408h34.385c0.371-0.808,0.688-1.612,0.96-2.405H64.2V52.2h36.034c0.187-0.815,0.327-1.618,0.408-2.407H64.2V47.389z"/>
	<path style="fill:#FFFFFF;" d="M95.302,35.356H69.009c-0.892,0.792-1.651,1.611-2.282,2.407h30.775
		C96.852,36.893,96.119,36.09,95.302,35.356z"/>
	<path style="fill:#FFFFFF;" d="M82.216,30.611c-4.031,0-7.25,0.96-9.787,2.34h19.458C89.095,31.45,85.797,30.611,82.216,30.611z"/>
</g>
</svg>
